# xmcd CD database file
#
# Track frame offsets:
#	150
#	14071
#	28957
#	41341
#	54154
#	67481
#	81959
#	95350
#	108690
#	122578
#	136612
#	150349
#	162956
#	177544
#	192193
#	206070
#	217299
#	231563
#	244199
#	256817
#	268054
#	279410
#	289836
#	301126
#	313986
#
# Disc length: 4335 seconds
#
# Revision: 0
# Processed by: cddbd v1.4PL0 Copyright (c) Steve Scherf et al.
# Submitted via: CDex 1.50Beta7
#
DISCID=7c10ed19
DTITLE=Ravens - Birds of a feather 1
DYEAR=1900
DGENRE=Jazz
TTITLE0=Lullaby
TTITLE1=Out of a dream
TTITLE2=Bye bye baby blues
TTITLE3=My sugar is so refined
TTITLE4=Honey
TTITLE5=Mahzel
TTITLE6=Ol' man river
TTITLE7=Summertime
TTITLE8=Searching for love
TTITLE9=Be I bumble bee or not
TTITLE10=Fool that I am
TTITLE11=Together
TTITLE12=Until the real thing comes along
TTITLE13=September rain
TTITLE14=It's to soon to know
TTITLE15=I( don't know why I love you..
TTITLE16=White Christmas
TTITLE17=Always
TTITLE18=Deep purple
TTITLE19=Leave my girl alone
TTITLE20=Rickey's blus
TTITLE21=Someday
TTITLE22=Careless Love
TTITLE23=Marie
TTITLE24=I'm gonna take to the road
EXTD=
EXTT0=
EXTT1=
EXTT2=
EXTT3=
EXTT4=
EXTT5=
EXTT6=
EXTT7=
EXTT8=
EXTT9=
EXTT10=
EXTT11=
EXTT12=
EXTT13=
EXTT14=
EXTT15=
EXTT16=
EXTT17=
EXTT18=
EXTT19=
EXTT20=
EXTT21=
EXTT22=
EXTT23=
EXTT24=
PLAYORDER=
